<svg width="200" height="200" viewBox="0 0 200 200" fill="none" xmlns="http://www.w3.org/2000/svg">
<path d="M99.4559 89.4946C92.8639 89.4946 88.7203 95.2077 88.7203 103.097C88.7203 109.878 92.1105 116.093 99.2676 116.093C101.53 116.074 103.719 115.287 105.475 113.861C107.232 112.436 108.452 110.455 108.936 108.245C109.141 107.424 109.246 106.581 109.25 105.734V99.6651C109.238 98.7361 109.133 97.8106 108.936 96.9028C108.408 94.7875 107.189 92.9093 105.471 91.567C103.753 90.2246 101.636 89.4952 99.4559 89.4946Z" fill="white"/>
<path d="M100.01 5.47624e-07C80.2315 -0.00206893 60.8961 5.86133 44.4495 16.8487C28.003 27.836 15.1842 43.4538 7.6141 61.7268C0.044037 79.9998 -1.93718 100.107 1.92101 119.506C5.77919 138.906 15.3035 156.725 29.2894 170.711C43.2752 184.697 61.0945 194.221 80.4936 198.079C99.8926 201.937 120 199.956 138.273 192.386C156.546 184.816 172.164 171.997 183.151 155.55C194.139 139.104 200.002 119.769 200 99.9895C200 73.4706 189.465 48.0379 170.714 29.2863C151.962 10.5346 126.529 5.47624e-07 100.01 5.47624e-07ZM40.9439 118.562C30.7105 118.562 20.9167 111.97 20.9167 96.9656C20.9167 84.4093 29.0154 74.8666 42.325 74.8666C47.7242 74.8666 50.8633 76.0699 52.1817 76.75L51.1353 79.2613C48.3799 78.0006 45.3754 77.3783 42.346 77.4406C30.9198 77.4406 23.9511 84.8488 23.9511 97.0283C23.9511 108.538 30.5431 115.925 41.8437 115.925C45.1288 115.984 48.3866 115.32 51.3865 113.979L52.2654 116.365C48.7032 117.934 44.8345 118.685 40.9439 118.562ZM81.6889 102.49H59.4643C59.4643 112.159 64.6961 115.925 70.9742 115.925C73.8616 116.06 76.7375 115.478 79.345 114.23L80.0984 116.616C78.9683 117.244 75.913 118.562 70.6184 118.562C61.9546 118.562 56.5554 112.221 56.5554 103.369C56.5554 93.3243 62.3313 87.0461 70.158 87.0461C80.0147 87.0461 81.8981 96.3377 81.8981 100.649C81.9051 101.269 81.8348 101.888 81.6889 102.49ZM109.742 117.872L109.553 112.159H109.428C108.456 114.153 106.923 115.82 105.019 116.958C103.114 118.095 100.919 118.652 98.7025 118.562C91.2944 118.562 85.7068 112.347 85.7068 103.369C85.6441 93.3243 91.8594 87.0461 99.3094 87.0461C104.541 87.0461 107.774 89.7457 109.166 92.2779H109.292V73.297H112.242V110.84C112.242 113.1 112.357 115.737 112.483 117.872H109.742ZM136.298 117.872L135.859 113.54H135.67C134.621 115.115 133.192 116.4 131.515 117.278C129.838 118.156 127.967 118.597 126.075 118.562C120.048 118.562 117.223 114.293 117.223 110.275C117.223 103.306 123.376 99.1001 135.607 99.2257V98.4723C135.607 95.4588 135.042 89.4946 127.885 89.5574C125.203 89.5034 122.571 90.294 120.362 91.8175L119.41 89.6201C122.037 87.9396 125.091 87.0464 128.21 87.0461C136.926 87.0461 138.558 93.5754 138.558 98.9745V110.715C138.546 113.107 138.693 115.498 138.998 117.872H136.298ZM158.397 90.0596C157.924 89.95 157.438 89.9077 156.953 89.9341C152.768 89.9341 149.859 93.5126 149.053 98.3049C148.898 99.2602 148.811 100.225 148.791 101.193V117.83H145.841V96.7772C145.841 93.7637 145.726 90.6247 145.6 87.7367H148.362L148.488 93.8265H148.614C149.932 90.0596 153.071 87.0461 157.215 87.0461C157.611 87.0574 158.007 87.0994 158.397 87.1717V90.0596ZM168.452 118.562C165.752 118.585 163.097 117.861 160.783 116.47L161.829 113.958C163.855 115.256 166.194 115.979 168.599 116.051C173.37 116.051 175.63 113.477 175.63 110.338C175.63 107.011 173.621 105.253 169.3 103.495C164.33 101.611 161.63 98.9118 161.63 95.2704C161.63 90.9385 165.031 87.1089 170.922 87.1089C173.277 87.0657 175.593 87.7211 177.577 88.9923L176.394 91.378C174.663 90.1355 172.571 89.4959 170.441 89.5574C166.611 89.5574 164.602 92.0058 164.602 94.7891C164.602 97.9282 166.695 99.3094 170.807 101.004C175.704 102.888 178.592 105.336 178.592 109.919C178.613 115.047 174.605 118.562 168.452 118.562Z" fill="white"/>
<path d="M120.362 109.773C120.362 114.105 123.25 116.051 126.389 116.051C128.322 116.129 130.23 115.586 131.832 114.501C133.434 113.417 134.647 111.848 135.294 110.024C135.484 109.435 135.59 108.822 135.607 108.203V101.737C129.015 101.549 120.362 102.553 120.362 109.773Z" fill="white"/>
<path d="M69.6662 89.4946C63.0114 89.4946 60.1235 95.4588 59.6212 100.105H78.644C78.7381 95.8983 76.9907 89.4946 69.6662 89.4946Z" fill="white"/>
</svg>
